# This file uses centimeters as units for non-parametric coordinates.

mtllib golfClub.mtl
g default
v -0.098766 22.824602 0.265574
v 1.317563 22.541975 0.208585
v -0.311180 23.414295 0.265574
v 1.195304 24.240152 0.208585
v -0.311180 23.414295 -0.265574
v 1.195304 24.240152 -0.208585
v -0.098766 22.824602 -0.265574
v 1.317563 22.541975 -0.208585
v 0.274845 23.831732 0.208585
v 0.274845 23.831732 -0.208585
v 0.248143 22.610102 -0.208585
v 0.248143 22.610102 0.208585
v 1.694514 22.654709 -0.208585
v 1.694514 22.654709 0.208585
v 1.501901 24.236116 -0.208585
v 1.501901 24.236116 0.208585
v 1.923074 22.845493 -0.265574
v 1.923074 22.845493 0.265574
v 1.730462 23.987621 -0.265574
v 1.730462 23.987621 0.265574
v 2.016089 23.253710 -0.265574
v 2.016089 23.253710 0.265574
v 1.954174 23.620863 -0.265574
v 1.954174 23.620863 0.265574
v -0.293875 0.000000 0.213472
v 0.133069 0.000000 0.213472
v -0.273989 23.412693 0.193586
v 0.113183 23.412693 0.193586
v -0.273989 23.412693 -0.193586
v 0.113183 23.412693 -0.193586
v -0.293875 0.000000 -0.213472
v 0.133069 0.000000 -0.213472
v -0.349252 5.799902 0.268849
v -0.349252 5.799902 -0.268849
v 0.188446 5.799902 -0.268849
v 0.188446 5.799902 0.268849
v -0.273989 22.176277 0.193586
v -0.273989 22.176277 -0.193586
v 0.113183 22.176277 -0.193586
v 0.113183 22.176277 0.193586
v 0.109431 5.799902 0.189834
v -0.270238 5.799902 0.189834
v -0.270238 5.799902 -0.189834
v 0.109431 5.799902 -0.189834
v -0.197249 22.176277 0.116846
v -0.197249 22.176277 -0.116846
v 0.036443 22.176277 -0.116846
v 0.036443 22.176277 0.116846
v -0.080403 22.176277 0.238629
v -0.080403 22.176277 0.144034
v -0.080403 5.799902 0.234005
v -0.080403 5.799902 0.337430
v -0.080403 0.000000 0.267927
v -0.080403 0.000000 -0.267927
v -0.080403 5.799902 -0.337430
v -0.080403 5.799902 -0.234005
v -0.080403 22.176277 -0.144034
v -0.080403 22.176277 -0.238629
v -0.080403 23.412693 -0.238629
v -0.080403 23.412693 0.238629
v -0.319032 22.176277 0.000000
v -0.224437 22.176277 0.000000
v -0.314408 5.799902 0.000000
v -0.417833 5.799902 0.000000
v -0.348331 0.000000 0.000000
v -0.080403 0.000000 0.000000
v 0.187524 0.000000 0.000000
v 0.257027 5.799902 0.000000
v 0.153602 5.799902 -0.000000
v 0.063631 22.176277 -0.000000
v 0.158226 22.176277 -0.000000
v 0.158226 23.412693 -0.000000
v -0.080403 23.412693 -0.000000
v -0.319032 23.412693 0.000000
v -0.080403 0.144094 0.337430
v 0.188446 0.144094 0.268849
v 0.257027 0.144094 0.000000
v 0.188446 0.144094 -0.268849
v -0.080403 0.144094 -0.337430
v -0.349252 0.144094 -0.268849
v -0.417833 0.144094 0.000000
v -0.349252 0.144094 0.268849
vt 0.591183 0.823413
vt 0.604302 0.813061
vt 0.609741 0.825600
vt 0.601536 0.836532
vt 0.578065 0.833766
vt 0.588996 0.841971
vt 0.572626 0.821226
vt 0.580831 0.810295
vt 0.593370 0.804856
vt 0.619612 0.826764
vt 0.608182 0.844954
vt 0.612724 0.806414
vt 0.594534 0.794984
vt 0.574184 0.801872
vt 0.562754 0.820063
vt 0.569642 0.840412
vt 0.587833 0.851842
vt 0.532326 0.209792
vt 0.546950 0.219411
vt 0.350861 0.517515
vt 0.336237 0.507895
vt 0.277741 0.469417
vt 0.380109 0.536754
vt 0.473829 0.171314
vt 0.561574 0.229031
vt 0.365485 0.527134
vt 0.503078 0.190553
vt 0.517702 0.200172
vt 0.321613 0.498276
vt 0.306989 0.488656
vt 0.292365 0.479037
vt 0.488454 0.180933
vt 0.394734 0.546373
vt 0.576198 0.238650
vt 0.590822 0.248270
vt 0.503497 0.758801
vt 0.508111 0.740716
vt 0.513426 0.746031
vt 0.510454 0.758801
vt 0.526195 0.774542
vt 0.538965 0.771571
vt 0.544280 0.776886
vt 0.526195 0.781499
vt 0.544280 0.740716
vt 0.548893 0.758801
vt 0.541936 0.758801
vt 0.538965 0.746031
vt 0.526195 0.736103
vt 0.526195 0.743060
vt 0.513425 0.771571
vt 0.508111 0.776885
vt 0.862311 0.041047
vt 0.873062 0.049296
vt 0.176939 0.950296
vt 0.170322 0.945219
vt 0.840714 0.024675
vt 0.851540 0.032825
vt 0.163692 0.940158
vt 0.157028 0.935141
vt 0.143644 0.925186
vt 0.190093 0.960555
vt 0.818968 0.008500
vt 0.883758 0.057617
vt 0.183522 0.955418
vt 0.150353 0.930141
vt 0.829868 0.016551
vt 0.196629 0.965737
vt 0.894432 0.065964
vt 0.905051 0.074382
vt 0.518296 0.829296
vt 0.527558 0.830272
vt 0.531236 0.837852
vt 0.515892 0.836234
vt 0.504455 0.812665
vt 0.512681 0.799610
vt 0.516358 0.807190
vt 0.511394 0.815070
vt 0.533499 0.813131
vt 0.525620 0.808166
vt 0.528025 0.801228
vt 0.541079 0.809453
vt 0.532523 0.822393
vt 0.539462 0.824798
vt 0.502838 0.828009
vt 0.510417 0.824331
vt 0.596128 0.728761
vt 0.617548 0.733745
vt 0.622532 0.755165
vt 0.596128 0.755165
vt 0.574709 0.733745
vt 0.569725 0.755165
vt 0.617548 0.776584
vt 0.596128 0.781568
vt 0.574709 0.776584
vt 0.073743 0.695241
vt 0.097472 0.679131
vt 0.103646 0.764004
vt 0.061217 0.737055
vt 0.171612 0.670613
vt 0.169109 0.789157
vt 0.198228 0.677122
vt 0.190420 0.787793
vt 0.215248 0.689610
vt 0.206000 0.769742
vt 0.223199 0.717663
vt 0.220227 0.743423
vt 0.277741 0.513657
vt 0.288679 0.561985
vt 0.211942 0.528094
vt 0.234769 0.511412
vt 0.290310 0.631098
vt 0.179437 0.594091
vt 0.281973 0.650428
vt 0.176649 0.620957
vt 0.260047 0.658901
vt 0.182595 0.640900
vt 0.230895 0.663375
vt 0.205997 0.657588
vt 0.810304 0.435683
vt 0.855871 0.405864
vt 0.875132 0.430759
vt 0.834826 0.467379
vt 0.915964 0.359371
vt 0.935225 0.384266
vt 0.934263 0.345214
vt 0.953523 0.370109
vt 0.951779 0.326225
vt 0.976302 0.357922
vt 0.528330 0.985225
vt 0.528330 0.888561
vt 0.543869 0.888561
vt 0.543869 0.985225
vt 0.789432 0.367277
vt 0.811821 0.350202
vt 0.832088 0.370270
vt 0.815237 0.392827
vt 0.785086 0.423279
vt 0.759281 0.397729
vt 0.863368 0.298140
vt 0.883636 0.318208
vt 0.882294 0.279025
vt 0.902562 0.299092
vt 0.893847 0.261819
vt 0.919653 0.287369
vt 0.816335 0.279759
vt 0.840503 0.300079
vt 0.826258 0.317021
vt 0.802090 0.296701
vt 0.832352 0.260709
vt 0.856520 0.281029
vt 0.809823 0.336569
vt 0.785655 0.316249
vt 0.497252 0.985225
vt 0.606024 0.985225
vt 0.497252 0.888561
vt 0.574946 0.888561
vt 0.590485 0.888561
vt 0.590485 0.985225
vt 0.574946 0.985225
vt 0.559408 0.985225
vt 0.559408 0.888561
vt 0.512791 0.985225
vt 0.512791 0.888561
vt 0.621563 0.985225
vt 0.606024 0.888561
vt 0.621563 0.888561
vn 0.118652 0.012165 0.992861
vn 0.019205 0.001969 0.999814
vn 0.014410 0.001477 0.999895
vn 0.118652 0.012165 0.992862
vn -0.580176 0.814491 0.000000
vn -0.488408 0.872615 0.000000
vn -0.488408 0.872615 0.000000
vn -0.580176 0.814491 0.000000
vn 0.118652 0.012165 -0.992862
vn 0.014410 0.001477 -0.999895
vn 0.019205 0.001969 -0.999814
vn 0.118652 0.012165 -0.992861
vn -0.525907 -0.850542 0.000000
vn -0.217217 -0.976123 0.000000
vn -0.217217 -0.976123 0.000000
vn -0.525907 -0.850542 0.000000
vn 0.986077 0.166288 0.000000
vn 0.986077 0.166288 0.000000
vn 0.986077 0.166288 0.000000
vn 0.986077 0.166288 0.000000
vn -0.940824 -0.338896 0.000000
vn -0.940824 -0.338896 0.000000
vn -0.940824 -0.338896 0.000000
vn -0.940824 -0.338896 0.000000
vn -0.312998 0.949754 0.000000
vn -0.312998 0.949754 0.000000
vn 0.000000 0.000000 -1.000000
vn -0.000000 0.000000 -1.000000
vn 0.030826 -0.999525 0.000000
vn 0.030826 -0.999525 0.000000
vn -0.000000 0.000000 1.000000
vn 0.000000 0.000000 1.000000
vn 0.469987 -0.882673 0.000000
vn 0.469987 -0.882673 0.000000
vn -0.042651 -0.006033 -0.999072
vn -0.060138 -0.008506 -0.998154
vn 0.470270 0.882522 0.000000
vn 0.470270 0.882522 0.000000
vn -0.060138 -0.008506 0.998154
vn -0.042651 -0.006033 0.999072
vn 0.640814 -0.767696 0.000000
vn 0.640814 -0.767696 0.000000
vn -0.232830 -0.032932 -0.971960
vn -0.229752 -0.032497 -0.972707
vn 0.736013 0.676968 0.000000
vn 0.736013 0.676968 0.000000
vn -0.229752 -0.032497 0.972707
vn -0.232830 -0.032932 0.971960
vn 0.975010 -0.222162 0.000000
vn 0.975010 -0.222162 0.000000
vn 0.975010 -0.222162 0.000000
vn 0.975010 -0.222162 0.000000
vn -0.000000 0.000000 -1.000000
vn -0.000000 0.000000 -1.000000
vn 0.853714 0.520742 0.000000
vn 0.853714 0.520742 0.000000
vn 0.853714 0.520742 0.000000
vn 0.853714 0.520742 0.000000
vn -0.000000 0.000000 1.000000
vn -0.000000 0.000000 1.000000
vn -0.000000 -0.010054 0.999949
vn 0.247167 -0.008836 0.968933
vn 0.247165 0.009720 0.968925
vn 0.000000 0.012802 0.999918
vn 0.000000 1.000000 -0.000006
vn 0.000000 1.000000 -0.000015
vn 0.000000 1.000000 -0.000002
vn 0.000000 1.000000 -0.000001
vn 0.000000 0.012802 -0.999918
vn 0.247165 0.009720 -0.968925
vn 0.247167 -0.008836 -0.968933
vn -0.000000 -0.010054 -0.999949
vn 0.000000 -1.000000 0.000000
vn 0.000000 -1.000000 0.000000
vn 0.000000 -1.000000 0.000000
vn 0.000000 -1.000000 0.000000
vn 0.968933 -0.008836 0.247167
vn 0.999949 -0.010054 0.000000
vn 0.999918 0.012802 0.000000
vn 0.968925 0.009720 0.247165
vn -0.999949 -0.010054 0.000000
vn -0.968933 -0.008836 0.247167
vn -0.968925 0.009720 0.247165
vn -0.999918 0.012802 0.000000
vn -0.973832 0.017535 0.226592
vn -0.999871 0.016060 0.000000
vn 0.000000 0.016060 -0.999871
vn 0.226592 0.017535 -0.973832
vn 0.999871 0.016060 -0.000000
vn 0.973832 0.017535 0.226592
vn 0.226591 0.017535 0.973832
vn 0.000000 0.016060 0.999871
vn -1.000000 0.000000 0.000000
vn -0.998629 -0.052344 -0.000000
vn -0.973258 -0.038541 0.226458
vn -0.973982 0.000000 0.226627
vn 0.000000 0.000000 -1.000000
vn 0.226627 0.000000 -0.973982
vn 0.226459 -0.038541 -0.973258
vn 0.000000 -0.052344 -0.998629
vn 0.973258 -0.038541 0.226459
vn 0.998629 -0.052344 -0.000000
vn 1.000000 0.000000 0.000000
vn 0.973982 0.000000 0.226627
vn 0.000000 0.000000 1.000000
vn 0.000000 -0.052344 0.998629
vn 0.226457 -0.038541 0.973258
vn 0.226626 0.000000 0.973982
vn 0.226625 -0.002346 0.973979
vn 0.000000 -0.001199 0.999999
vn -0.973979 -0.002346 0.226626
vn -0.999999 -0.001199 -0.000000
vn 0.000000 -0.001199 -0.999999
vn 0.226626 -0.002346 -0.973979
vn 0.999999 -0.001199 -0.000000
vn 0.973979 -0.002346 0.226627
vn -0.226626 -0.002346 0.973979
vn -0.226458 -0.038541 0.973258
vn -0.226592 0.017535 0.973832
vn -0.247165 0.009720 0.968925
vn -0.247167 -0.008836 0.968933
vn 0.000000 -1.000000 0.000000
vn 0.000000 -1.000000 0.000000
vn -0.247165 0.009720 -0.968925
vn -0.247167 -0.008836 -0.968933
vn -0.226592 0.017535 -0.973832
vn -0.226626 -0.002346 -0.973979
vn -0.226459 -0.038541 -0.973258
vn -0.226627 0.000000 -0.973982
vn 0.000000 1.000000 0.000003
vn 0.000000 1.000000 0.000000
vn -0.226626 0.000000 0.973982
vn -0.973979 -0.002346 -0.226625
vn -0.973258 -0.038541 -0.226457
vn -0.973832 0.017535 -0.226591
vn -0.968925 0.009720 -0.247165
vn -0.968933 -0.008836 -0.247167
vn 0.000000 -1.000000 0.000000
vn 0.000000 -1.000000 0.000000
vn 0.000000 -1.000000 0.000000
vn 0.968933 -0.008836 -0.247167
vn 0.968925 0.009720 -0.247165
vn 0.973832 0.017535 -0.226592
vn 0.973979 -0.002346 -0.226627
vn 0.973258 -0.038541 -0.226459
vn 0.973982 0.000000 -0.226627
vn 0.000000 1.000000 0.000010
vn 0.000000 1.000000 0.000004
vn 0.000000 1.000000 -0.000003
vn -0.973982 0.000000 -0.226626
vn -0.000000 -0.434442 0.900700
vn 0.223927 -0.423410 0.877827
vn 0.877827 -0.423410 0.223927
vn 0.900700 -0.434442 0.000000
vn 0.877827 -0.423410 -0.223927
vn 0.223927 -0.423410 -0.877827
vn -0.000000 -0.434442 -0.900700
vn -0.223927 -0.423410 -0.877827
vn -0.877827 -0.423410 -0.223927
vn -0.900700 -0.434442 0.000000
vn -0.877827 -0.423410 0.223927
vn -0.223927 -0.423410 0.877827
s 1
g pCube3
usemtl blinn1SG
f 1/95/1 12/96/2 9/97/3 3/98/4
s 2
f 3/119/5 9/120/6 10/121/7 5/122/8
s 3
f 5/107/9 10/108/10 11/109/11 7/110/12
s 4
f 7/133/13 11/134/14 12/135/15 1/136/16
s off
f 22/145/17 21/146/18 23/147/19 24/148/20
f 7/133/21 1/136/22 3/137/23 5/138/24
s 2
f 9/120/6 4/123/25 6/124/26 10/121/7
s 3
f 11/109/11 10/108/10 6/111/27 8/112/28
s 4
f 12/135/15 11/134/14 8/139/29 2/140/30
s 1
f 9/97/3 12/96/2 2/99/31 4/100/32
s 4
f 2/140/30 8/139/29 13/141/33 14/142/34
s 3
f 8/112/28 6/111/27 15/113/35 13/114/36
s 2
f 6/124/26 4/123/25 16/125/37 15/126/38
s 1
f 4/100/32 2/99/31 14/101/39 16/102/40
s 4
f 14/142/34 13/141/33 17/143/41 18/144/42
s 3
f 13/114/36 15/113/35 19/115/43 17/116/44
s 2
f 15/126/38 16/125/37 20/127/45 19/128/46
s 1
f 16/102/40 14/101/39 18/103/47 20/104/48
s off
f 18/149/49 17/150/50 21/146/51 22/145/52
s 3
f 17/116/44 19/115/43 23/117/53 21/118/54
s off
f 19/151/55 20/152/56 24/148/57 23/147/58
s 1
f 20/104/48 18/103/47 22/105/59 24/106/60
s 5
usemtl lambert2SG
f 75/18/61 76/19/62 36/20/63 52/21/64
s 6
usemtl blinn1SG
f 60/86/65 28/87/66 72/88/67 73/89/68
s 7
usemtl lambert2SG
f 55/33/69 35/23/70 78/34/71 79/35/72
s 8
f 66/1/73 67/2/74 26/3/75 53/4/76
s 9
f 76/19/77 77/25/78 68/26/79 36/20/80
s 10
f 81/27/81 82/28/82 33/29/83 64/30/84
f 64/36/84 33/37/83 42/38/85 63/39/86
s 7
f 56/40/87 44/41/88 35/42/70 55/43/69
s 9
f 36/44/80 68/45/79 69/46/89 41/47/90
s 5
f 52/48/64 36/44/63 41/47/91 51/49/92
s 10
usemtl blinn1SG
f 74/129/93 61/130/94 37/131/95 27/132/96
s 7
f 59/164/97 30/154/98 39/165/99 58/166/100
s 9
f 40/156/101 71/157/102 72/158/103 28/159/104
s 5
f 60/160/105 49/161/106 40/156/107 28/159/108
f 51/52/92 41/53/91 48/54/109 50/55/110
s 10
f 63/56/86 42/57/85 45/58/111 62/59/112
s 7
f 57/67/113 47/61/114 44/68/88 56/69/87
s 9
f 41/53/90 69/63/89 70/64/115 48/54/116
s 10
f 62/70/112 45/71/111 37/72/95 61/73/94
s 7
f 58/74/100 39/75/99 47/76/114 57/77/113
s 9
f 48/78/116 70/79/115 71/80/102 40/81/101
s 5
f 50/82/110 48/78/109 40/81/107 49/83/106
f 45/71/117 50/82/110 49/83/106 37/72/118
f 42/57/119 51/52/92 50/55/110 45/58/117
usemtl lambert2SG
f 33/37/120 52/48/64 51/49/92 42/38/119
f 82/28/121 75/18/61 52/21/64 33/29/120
s 8
f 65/5/122 66/1/73 53/4/76 25/6/123
s 7
f 34/31/124 55/22/69 79/24/72 80/32/125
f 43/50/126 56/40/87 55/43/69 34/51/124
usemtl blinn1SG
f 46/65/127 57/60/113 56/62/87 43/66/126
f 38/84/128 58/74/100 57/77/113 46/85/127
f 29/162/129 59/153/97 58/155/100 38/163/128
s 6
f 27/90/130 60/86/65 73/89/68 74/91/131
s 5
f 37/131/118 49/161/106 60/160/105 27/132/132
s 10
f 46/85/133 62/70/112 61/73/94 38/84/134
f 43/66/135 63/56/86 62/59/112 46/65/133
usemtl lambert2SG
f 34/51/136 64/36/84 63/39/86 43/50/135
f 80/32/137 81/27/81 64/30/84 34/31/136
s 8
f 31/7/138 54/8/139 66/1/73 65/5/122
f 54/8/139 32/9/140 67/2/74 66/1/73
s 9
f 68/26/79 77/25/78 78/34/141 35/23/142
f 69/46/89 68/45/79 35/42/142 44/41/143
usemtl blinn1SG
f 70/64/115 69/63/89 44/68/143 47/61/144
f 71/80/102 70/79/115 47/76/144 39/75/145
f 72/158/103 71/157/102 39/165/145 30/154/146
s 6
f 73/89/68 72/88/67 30/92/147 59/93/148
f 74/91/131 73/89/68 59/93/148 29/94/149
s 10
f 38/163/134 61/130/94 74/129/93 29/162/150
s 5
usemtl lambert2SG
f 53/4/151 26/3/152 76/10/62 75/11/61
s 9
f 26/3/153 67/2/154 77/12/78 76/10/77
f 78/13/141 77/12/78 67/2/154 32/9/155
s 7
f 79/14/72 78/13/71 32/9/156 54/8/157
f 80/15/125 79/14/72 54/8/157 31/7/158
s 10
f 31/7/159 65/5/160 81/16/81 80/15/137
f 65/5/160 25/6/161 82/17/82 81/16/81
s 5
f 25/6/162 53/4/151 75/11/61 82/17/121
